solid ascii
 facet normal -1 0 0
  outer loop
   vertex 2.2 2.2 205
   vertex 2.2 2.2 215
   vertex 2.2 41.8 205
  endloop
 endfacet
 facet normal -1 0 0
  outer loop
   vertex 2.2 41.8 215
   vertex 2.2 41.8 205
   vertex 2.2 2.2 215
  endloop
 endfacet
 facet normal 1 0 0
  outer loop
   vertex 41.8 2.2 205
   vertex 41.8 41.8 205
   vertex 41.8 2.2 215
  endloop
 endfacet
 facet normal 1 -0 0
  outer loop
   vertex 41.8 41.8 215
   vertex 41.8 2.2 215
   vertex 41.8 41.8 205
  endloop
 endfacet
 facet normal 0 -1 0
  outer loop
   vertex 2.2 2.2 205
   vertex 41.8 2.2 205
   vertex 2.2 2.2 215
  endloop
 endfacet
 facet normal 0 -1 0
  outer loop
   vertex 41.8 2.2 215
   vertex 2.2 2.2 215
   vertex 41.8 2.2 205
  endloop
 endfacet
 facet normal 0 1 0
  outer loop
   vertex 2.2 41.8 205
   vertex 2.2 41.8 215
   vertex 41.8 41.8 205
  endloop
 endfacet
 facet normal 0 1 -0
  outer loop
   vertex 41.8 41.8 215
   vertex 41.8 41.8 205
   vertex 2.2 41.8 215
  endloop
 endfacet
 facet normal 0 0 -1
  outer loop
   vertex 2.2 2.2 205
   vertex 2.2 41.8 205
   vertex 41.8 2.2 205
  endloop
 endfacet
 facet normal 0 0 -1
  outer loop
   vertex 41.8 41.8 205
   vertex 41.8 2.2 205
   vertex 2.2 41.8 205
  endloop
 endfacet
 facet normal 0 0 1
  outer loop
   vertex 2.2 2.2 215
   vertex 41.8 2.2 215
   vertex 2.2 41.8 215
  endloop
 endfacet
 facet normal -0 0 1
  outer loop
   vertex 41.8 41.8 215
   vertex 2.2 41.8 215
   vertex 41.8 2.2 215
  endloop
 endfacet
endsolid
