solid ascii
 facet normal -1 0 0
  outer loop
   vertex 6.2 6.2 6
   vertex 6.2 6.2 16
   vertex 6.2 117.8 6
  endloop
 endfacet
 facet normal -1 0 0
  outer loop
   vertex 6.2 117.8 16
   vertex 6.2 117.8 6
   vertex 6.2 6.2 16
  endloop
 endfacet
 facet normal 1 0 0
  outer loop
   vertex 117.8 6.2 6
   vertex 117.8 117.8 6
   vertex 117.8 6.2 16
  endloop
 endfacet
 facet normal 1 -0 0
  outer loop
   vertex 117.8 117.8 16
   vertex 117.8 6.2 16
   vertex 117.8 117.8 6
  endloop
 endfacet
 facet normal 0 -1 0
  outer loop
   vertex 6.2 6.2 6
   vertex 117.8 6.2 6
   vertex 6.2 6.2 16
  endloop
 endfacet
 facet normal 0 -1 0
  outer loop
   vertex 117.8 6.2 16
   vertex 6.2 6.2 16
   vertex 117.8 6.2 6
  endloop
 endfacet
 facet normal 0 1 0
  outer loop
   vertex 6.2 117.8 6
   vertex 6.2 117.8 16
   vertex 117.8 117.8 6
  endloop
 endfacet
 facet normal 0 1 -0
  outer loop
   vertex 117.8 117.8 16
   vertex 117.8 117.8 6
   vertex 6.2 117.8 16
  endloop
 endfacet
 facet normal 0 0 -1
  outer loop
   vertex 6.2 6.2 6
   vertex 6.2 117.8 6
   vertex 117.8 6.2 6
  endloop
 endfacet
 facet normal 0 0 -1
  outer loop
   vertex 117.8 117.8 6
   vertex 117.8 6.2 6
   vertex 6.2 117.8 6
  endloop
 endfacet
 facet normal 0 0 1
  outer loop
   vertex 6.2 6.2 16
   vertex 117.8 6.2 16
   vertex 6.2 117.8 16
  endloop
 endfacet
 facet normal -0 0 1
  outer loop
   vertex 117.8 117.8 16
   vertex 6.2 117.8 16
   vertex 117.8 6.2 16
  endloop
 endfacet
endsolid
