solid ascii
 facet normal -1 0 0
  outer loop
   vertex 6.2 6.2 1005
   vertex 6.2 6.2 1015
   vertex 6.2 117.8 1005
  endloop
 endfacet
 facet normal -1 0 0
  outer loop
   vertex 6.2 117.8 1015
   vertex 6.2 117.8 1005
   vertex 6.2 6.2 1015
  endloop
 endfacet
 facet normal 1 0 0
  outer loop
   vertex 117.8 6.2 1005
   vertex 117.8 117.8 1005
   vertex 117.8 6.2 1015
  endloop
 endfacet
 facet normal 1 -0 0
  outer loop
   vertex 117.8 117.8 1015
   vertex 117.8 6.2 1015
   vertex 117.8 117.8 1005
  endloop
 endfacet
 facet normal 0 -1 0
  outer loop
   vertex 6.2 6.2 1005
   vertex 117.8 6.2 1005
   vertex 6.2 6.2 1015
  endloop
 endfacet
 facet normal 0 -1 0
  outer loop
   vertex 117.8 6.2 1015
   vertex 6.2 6.2 1015
   vertex 117.8 6.2 1005
  endloop
 endfacet
 facet normal 0 1 0
  outer loop
   vertex 6.2 117.8 1005
   vertex 6.2 117.8 1015
   vertex 117.8 117.8 1005
  endloop
 endfacet
 facet normal 0 1 -0
  outer loop
   vertex 117.8 117.8 1015
   vertex 117.8 117.8 1005
   vertex 6.2 117.8 1015
  endloop
 endfacet
 facet normal 0 0 -1
  outer loop
   vertex 6.2 6.2 1005
   vertex 6.2 117.8 1005
   vertex 117.8 6.2 1005
  endloop
 endfacet
 facet normal 0 0 -1
  outer loop
   vertex 117.8 117.8 1005
   vertex 117.8 6.2 1005
   vertex 6.2 117.8 1005
  endloop
 endfacet
 facet normal 0 0 1
  outer loop
   vertex 6.2 6.2 1015
   vertex 117.8 6.2 1015
   vertex 6.2 117.8 1015
  endloop
 endfacet
 facet normal -0 0 1
  outer loop
   vertex 117.8 117.8 1015
   vertex 6.2 117.8 1015
   vertex 117.8 6.2 1015
  endloop
 endfacet
endsolid
