solid ascii
 facet normal -1 0 0
  outer loop
   vertex 3.7 3.7 6
   vertex 3.7 3.7 16
   vertex 3.7 70.3 6
  endloop
 endfacet
 facet normal -1 0 0
  outer loop
   vertex 3.7 70.3 16
   vertex 3.7 70.3 6
   vertex 3.7 3.7 16
  endloop
 endfacet
 facet normal 1 0 0
  outer loop
   vertex 70.3 3.7 6
   vertex 70.3 70.3 6
   vertex 70.3 3.7 16
  endloop
 endfacet
 facet normal 1 -0 0
  outer loop
   vertex 70.3 70.3 16
   vertex 70.3 3.7 16
   vertex 70.3 70.3 6
  endloop
 endfacet
 facet normal 0 -1 0
  outer loop
   vertex 3.7 3.7 6
   vertex 70.3 3.7 6
   vertex 3.7 3.7 16
  endloop
 endfacet
 facet normal 0 -1 0
  outer loop
   vertex 70.3 3.7 16
   vertex 3.7 3.7 16
   vertex 70.3 3.7 6
  endloop
 endfacet
 facet normal 0 1 0
  outer loop
   vertex 3.7 70.3 6
   vertex 3.7 70.3 16
   vertex 70.3 70.3 6
  endloop
 endfacet
 facet normal 0 1 -0
  outer loop
   vertex 70.3 70.3 16
   vertex 70.3 70.3 6
   vertex 3.7 70.3 16
  endloop
 endfacet
 facet normal 0 0 -1
  outer loop
   vertex 3.7 3.7 6
   vertex 3.7 70.3 6
   vertex 70.3 3.7 6
  endloop
 endfacet
 facet normal 0 0 -1
  outer loop
   vertex 70.3 70.3 6
   vertex 70.3 3.7 6
   vertex 3.7 70.3 6
  endloop
 endfacet
 facet normal 0 0 1
  outer loop
   vertex 3.7 3.7 16
   vertex 70.3 3.7 16
   vertex 3.7 70.3 16
  endloop
 endfacet
 facet normal -0 0 1
  outer loop
   vertex 70.3 70.3 16
   vertex 3.7 70.3 16
   vertex 70.3 3.7 16
  endloop
 endfacet
endsolid
