solid ascii
 facet normal -1 0 0
  outer loop
   vertex 3.7 3.7 505
   vertex 3.7 3.7 515
   vertex 3.7 70.3 505
  endloop
 endfacet
 facet normal -1 0 0
  outer loop
   vertex 3.7 70.3 515
   vertex 3.7 70.3 505
   vertex 3.7 3.7 515
  endloop
 endfacet
 facet normal 1 0 0
  outer loop
   vertex 70.3 3.7 505
   vertex 70.3 70.3 505
   vertex 70.3 3.7 515
  endloop
 endfacet
 facet normal 1 -0 0
  outer loop
   vertex 70.3 70.3 515
   vertex 70.3 3.7 515
   vertex 70.3 70.3 505
  endloop
 endfacet
 facet normal 0 -1 0
  outer loop
   vertex 3.7 3.7 505
   vertex 70.3 3.7 505
   vertex 3.7 3.7 515
  endloop
 endfacet
 facet normal 0 -1 0
  outer loop
   vertex 70.3 3.7 515
   vertex 3.7 3.7 515
   vertex 70.3 3.7 505
  endloop
 endfacet
 facet normal 0 1 0
  outer loop
   vertex 3.7 70.3 505
   vertex 3.7 70.3 515
   vertex 70.3 70.3 505
  endloop
 endfacet
 facet normal 0 1 -0
  outer loop
   vertex 70.3 70.3 515
   vertex 70.3 70.3 505
   vertex 3.7 70.3 515
  endloop
 endfacet
 facet normal 0 0 -1
  outer loop
   vertex 3.7 3.7 505
   vertex 3.7 70.3 505
   vertex 70.3 3.7 505
  endloop
 endfacet
 facet normal 0 0 -1
  outer loop
   vertex 70.3 70.3 505
   vertex 70.3 3.7 505
   vertex 3.7 70.3 505
  endloop
 endfacet
 facet normal 0 0 1
  outer loop
   vertex 3.7 3.7 515
   vertex 70.3 3.7 515
   vertex 3.7 70.3 515
  endloop
 endfacet
 facet normal -0 0 1
  outer loop
   vertex 70.3 70.3 515
   vertex 3.7 70.3 515
   vertex 70.3 3.7 515
  endloop
 endfacet
endsolid
