solid ascii
 facet normal -1 0 0
  outer loop
   vertex 2.2 2.2 6
   vertex 2.2 2.2 16
   vertex 2.2 41.8 6
  endloop
 endfacet
 facet normal -1 0 0
  outer loop
   vertex 2.2 41.8 16
   vertex 2.2 41.8 6
   vertex 2.2 2.2 16
  endloop
 endfacet
 facet normal 1 0 0
  outer loop
   vertex 41.8 2.2 6
   vertex 41.8 41.8 6
   vertex 41.8 2.2 16
  endloop
 endfacet
 facet normal 1 -0 0
  outer loop
   vertex 41.8 41.8 16
   vertex 41.8 2.2 16
   vertex 41.8 41.8 6
  endloop
 endfacet
 facet normal 0 -1 0
  outer loop
   vertex 2.2 2.2 6
   vertex 41.8 2.2 6
   vertex 2.2 2.2 16
  endloop
 endfacet
 facet normal 0 -1 0
  outer loop
   vertex 41.8 2.2 16
   vertex 2.2 2.2 16
   vertex 41.8 2.2 6
  endloop
 endfacet
 facet normal 0 1 0
  outer loop
   vertex 2.2 41.8 6
   vertex 2.2 41.8 16
   vertex 41.8 41.8 6
  endloop
 endfacet
 facet normal 0 1 -0
  outer loop
   vertex 41.8 41.8 16
   vertex 41.8 41.8 6
   vertex 2.2 41.8 16
  endloop
 endfacet
 facet normal 0 0 -1
  outer loop
   vertex 2.2 2.2 6
   vertex 2.2 41.8 6
   vertex 41.8 2.2 6
  endloop
 endfacet
 facet normal 0 0 -1
  outer loop
   vertex 41.8 41.8 6
   vertex 41.8 2.2 6
   vertex 2.2 41.8 6
  endloop
 endfacet
 facet normal 0 0 1
  outer loop
   vertex 2.2 2.2 16
   vertex 41.8 2.2 16
   vertex 2.2 41.8 16
  endloop
 endfacet
 facet normal -0 0 1
  outer loop
   vertex 41.8 41.8 16
   vertex 2.2 41.8 16
   vertex 41.8 2.2 16
  endloop
 endfacet
endsolid
