solid ascii
 facet normal -1 0 0
  outer loop
   vertex 2.7 2.7 -4
   vertex 2.7 2.7 6
   vertex 2.7 51.3 -4
  endloop
 endfacet
 facet normal -1 0 0
  outer loop
   vertex 2.7 51.3 6
   vertex 2.7 51.3 -4
   vertex 2.7 2.7 6
  endloop
 endfacet
 facet normal 1 0 0
  outer loop
   vertex 51.3 2.7 -4
   vertex 51.3 51.3 -4
   vertex 51.3 2.7 6
  endloop
 endfacet
 facet normal 1 -0 0
  outer loop
   vertex 51.3 51.3 6
   vertex 51.3 2.7 6
   vertex 51.3 51.3 -4
  endloop
 endfacet
 facet normal 0 -1 0
  outer loop
   vertex 2.7 2.7 -4
   vertex 51.3 2.7 -4
   vertex 2.7 2.7 6
  endloop
 endfacet
 facet normal 0 -1 0
  outer loop
   vertex 51.3 2.7 6
   vertex 2.7 2.7 6
   vertex 51.3 2.7 -4
  endloop
 endfacet
 facet normal 0 1 0
  outer loop
   vertex 2.7 51.3 -4
   vertex 2.7 51.3 6
   vertex 51.3 51.3 -4
  endloop
 endfacet
 facet normal 0 1 -0
  outer loop
   vertex 51.3 51.3 6
   vertex 51.3 51.3 -4
   vertex 2.7 51.3 6
  endloop
 endfacet
 facet normal 0 0 -1
  outer loop
   vertex 2.7 2.7 -4
   vertex 2.7 51.3 -4
   vertex 51.3 2.7 -4
  endloop
 endfacet
 facet normal 0 0 -1
  outer loop
   vertex 51.3 51.3 -4
   vertex 51.3 2.7 -4
   vertex 2.7 51.3 -4
  endloop
 endfacet
 facet normal 0 0 1
  outer loop
   vertex 2.7 2.7 6
   vertex 51.3 2.7 6
   vertex 2.7 51.3 6
  endloop
 endfacet
 facet normal -0 0 1
  outer loop
   vertex 51.3 51.3 6
   vertex 2.7 51.3 6
   vertex 51.3 2.7 6
  endloop
 endfacet
endsolid
