solid ascii
 facet normal -1 0 0
  outer loop
   vertex 2.7 2.7 495
   vertex 2.7 2.7 505
   vertex 2.7 51.3 495
  endloop
 endfacet
 facet normal -1 0 0
  outer loop
   vertex 2.7 51.3 505
   vertex 2.7 51.3 495
   vertex 2.7 2.7 505
  endloop
 endfacet
 facet normal 1 0 0
  outer loop
   vertex 51.3 2.7 495
   vertex 51.3 51.3 495
   vertex 51.3 2.7 505
  endloop
 endfacet
 facet normal 1 -0 0
  outer loop
   vertex 51.3 51.3 505
   vertex 51.3 2.7 505
   vertex 51.3 51.3 495
  endloop
 endfacet
 facet normal 0 -1 0
  outer loop
   vertex 2.7 2.7 495
   vertex 51.3 2.7 495
   vertex 2.7 2.7 505
  endloop
 endfacet
 facet normal 0 -1 0
  outer loop
   vertex 51.3 2.7 505
   vertex 2.7 2.7 505
   vertex 51.3 2.7 495
  endloop
 endfacet
 facet normal 0 1 0
  outer loop
   vertex 2.7 51.3 495
   vertex 2.7 51.3 505
   vertex 51.3 51.3 495
  endloop
 endfacet
 facet normal 0 1 -0
  outer loop
   vertex 51.3 51.3 505
   vertex 51.3 51.3 495
   vertex 2.7 51.3 505
  endloop
 endfacet
 facet normal 0 0 -1
  outer loop
   vertex 2.7 2.7 495
   vertex 2.7 51.3 495
   vertex 51.3 2.7 495
  endloop
 endfacet
 facet normal 0 0 -1
  outer loop
   vertex 51.3 51.3 495
   vertex 51.3 2.7 495
   vertex 2.7 51.3 495
  endloop
 endfacet
 facet normal 0 0 1
  outer loop
   vertex 2.7 2.7 505
   vertex 51.3 2.7 505
   vertex 2.7 51.3 505
  endloop
 endfacet
 facet normal -0 0 1
  outer loop
   vertex 51.3 51.3 505
   vertex 2.7 51.3 505
   vertex 51.3 2.7 505
  endloop
 endfacet
endsolid
