solid ascii
 facet normal -1 0 0
  outer loop
   vertex 5.2 5.2 -4
   vertex 5.2 5.2 6
   vertex 5.2 98.8 -4
  endloop
 endfacet
 facet normal -1 0 0
  outer loop
   vertex 5.2 98.8 6
   vertex 5.2 98.8 -4
   vertex 5.2 5.2 6
  endloop
 endfacet
 facet normal 1 0 0
  outer loop
   vertex 98.8 5.2 -4
   vertex 98.8 98.8 -4
   vertex 98.8 5.2 6
  endloop
 endfacet
 facet normal 1 -0 0
  outer loop
   vertex 98.8 98.8 6
   vertex 98.8 5.2 6
   vertex 98.8 98.8 -4
  endloop
 endfacet
 facet normal 0 -1 0
  outer loop
   vertex 5.2 5.2 -4
   vertex 98.8 5.2 -4
   vertex 5.2 5.2 6
  endloop
 endfacet
 facet normal 0 -1 0
  outer loop
   vertex 98.8 5.2 6
   vertex 5.2 5.2 6
   vertex 98.8 5.2 -4
  endloop
 endfacet
 facet normal 0 1 0
  outer loop
   vertex 5.2 98.8 -4
   vertex 5.2 98.8 6
   vertex 98.8 98.8 -4
  endloop
 endfacet
 facet normal 0 1 -0
  outer loop
   vertex 98.8 98.8 6
   vertex 98.8 98.8 -4
   vertex 5.2 98.8 6
  endloop
 endfacet
 facet normal 0 0 -1
  outer loop
   vertex 5.2 5.2 -4
   vertex 5.2 98.8 -4
   vertex 98.8 5.2 -4
  endloop
 endfacet
 facet normal 0 0 -1
  outer loop
   vertex 98.8 98.8 -4
   vertex 98.8 5.2 -4
   vertex 5.2 98.8 -4
  endloop
 endfacet
 facet normal 0 0 1
  outer loop
   vertex 5.2 5.2 6
   vertex 98.8 5.2 6
   vertex 5.2 98.8 6
  endloop
 endfacet
 facet normal -0 0 1
  outer loop
   vertex 98.8 98.8 6
   vertex 5.2 98.8 6
   vertex 98.8 5.2 6
  endloop
 endfacet
endsolid
